<svg viewBox="0 0 24 24" fill="none" xmlns="http://www.w3.org/2000/svg"><g id="SVGRepo_bgCarrier" stroke-width="0"></g><g id="SVGRepo_tracerCarrier" stroke-linecap="round" stroke-linejoin="round"></g><g id="SVGRepo_iconCarrier"> <path d="M6.89 12.16C6.7408 12.1617 6.5945 12.1188 6.4698 12.0368C6.34511 11.9549 6.24769 11.8376 6.19 11.7C6.15012 11.6085 6.12969 11.5098 6.13 11.41C6.13018 11.2112 6.20931 11.0205 6.35 10.88C6.42132 10.8099 6.50646 10.7554 6.6 10.72C6.73563 10.6632 6.88512 10.648 7.02939 10.6765C7.17366 10.705 7.30617 10.7759 7.41 10.88C7.55045 11.0206 7.62934 11.2113 7.62934 11.41C7.62934 11.6088 7.55045 11.7994 7.41 11.94C7.34227 12.0094 7.26141 12.0645 7.17213 12.1023C7.08285 12.1401 6.98694 12.1597 6.89 12.16Z" fill="#000000"></path> <path d="M9.73 15C9.63436 15.0199 9.53563 15.0199 9.44 15C9.35074 14.962 9.26935 14.9078 9.2 14.84C9.10717 14.7601 9.038 14.6564 9 14.54C8.98033 14.4443 8.98033 14.3457 9 14.25C9.0023 14.0516 9.08111 13.8617 9.22 13.72C9.29184 13.6553 9.37268 13.6014 9.46 13.56C9.56323 13.5162 9.67498 13.496 9.78701 13.5011C9.89905 13.5062 10.0085 13.5363 10.1074 13.5893C10.2062 13.6423 10.2919 13.7167 10.3582 13.8072C10.4245 13.8977 10.4696 14.0019 10.4903 14.1121C10.5109 14.2224 10.5066 14.3358 10.4776 14.4442C10.4486 14.5525 10.3957 14.653 10.3228 14.7382C10.2498 14.8233 10.1587 14.8911 10.0561 14.9364C9.95354 14.9817 9.84209 15.0034 9.73 15Z" fill="#000000"></path> <path d="M14.24 10.49C14.1434 10.4904 14.0479 10.4699 13.96 10.43C13.8665 10.3946 13.7813 10.3401 13.71 10.27C13.5693 10.1295 13.4902 9.93883 13.49 9.73999C13.4897 9.64021 13.5101 9.54145 13.55 9.44999C13.5879 9.36074 13.6422 9.27935 13.71 9.20999C13.7897 9.1305 13.8902 9.07506 14 9.04999C14.1356 8.99316 14.2851 8.97802 14.4294 9.00652C14.5737 9.03502 14.7062 9.10585 14.81 9.20999C14.9148 9.31488 14.9861 9.44845 15.015 9.59385C15.0438 9.73925 15.029 9.88995 14.9723 10.0269C14.9156 10.1639 14.8195 10.281 14.6963 10.3634C14.5731 10.4458 14.4282 10.4899 14.28 10.49H14.24Z" fill="#000000"></path> <path d="M11.4 7.65C11.2012 7.64982 11.0105 7.57069 10.87 7.43C10.7986 7.35968 10.744 7.27425 10.71 7.18C10.6712 7.09171 10.6508 6.99644 10.65 6.9C10.649 6.80138 10.6679 6.70357 10.7057 6.61248C10.7435 6.52138 10.7994 6.4389 10.87 6.37C11.0131 6.23425 11.2028 6.15857 11.4 6.15857C11.5972 6.15857 11.7869 6.23425 11.93 6.37C12.0707 6.51052 12.1498 6.70115 12.15 6.9C12.1477 7.09841 12.0689 7.28828 11.93 7.43C11.7895 7.57069 11.5988 7.64982 11.4 7.65Z" fill="#000000"></path> <path d="M12.54 17.82C12.3381 17.8203 12.1442 17.7413 12 17.6C11.8595 17.4594 11.7807 17.2687 11.7807 17.07C11.7807 16.8712 11.8595 16.6806 12 16.54C12.0686 16.4666 12.1546 16.4115 12.25 16.38C12.3856 16.3232 12.5351 16.308 12.6794 16.3365C12.8237 16.365 12.9562 16.4359 13.06 16.54C13.1648 16.6449 13.2361 16.7785 13.265 16.9239C13.2938 17.0693 13.279 17.22 13.2223 17.3569C13.1656 17.4939 13.0695 17.611 12.9463 17.6934C12.8231 17.7758 12.6782 17.8199 12.53 17.82H12.54Z" fill="#000000"></path> <path d="M17.06 13.3C16.8612 13.2998 16.6705 13.2207 16.53 13.08C16.4592 13.011 16.4015 12.9297 16.36 12.84C16.3233 12.7479 16.3062 12.6491 16.31 12.55C16.31 12.3511 16.389 12.1603 16.5297 12.0197C16.6703 11.879 16.8611 11.8 17.06 11.8C17.2589 11.8 17.4497 11.879 17.5903 12.0197C17.731 12.1603 17.81 12.3511 17.81 12.55C17.8103 12.6498 17.7899 12.7485 17.75 12.84C17.7121 12.9292 17.6578 13.0106 17.59 13.08C17.4483 13.2189 17.2584 13.2977 17.06 13.3Z" fill="#000000"></path> <path d="M12 22.84C11.5076 22.8401 11.0201 22.743 10.5653 22.5542C10.1106 22.3655 9.69756 22.0888 9.35 21.74L2.25 14.64C1.54775 13.9369 1.1533 12.9837 1.1533 11.99C1.1533 10.9962 1.54775 10.0431 2.25 9.34L9.35 2.24C10.0531 1.53774 11.0062 1.1433 12 1.1433C12.9938 1.1433 13.9469 1.53774 14.65 2.24L21.75 9.34C22.0989 9.68748 22.3758 10.1005 22.5647 10.5552C22.7536 11.01 22.8509 11.4976 22.8509 11.99C22.8509 12.4824 22.7536 12.97 22.5647 13.4248C22.3758 13.8795 22.0989 14.2925 21.75 14.64L14.65 21.74C14.3024 22.0888 13.8894 22.3655 13.4347 22.5542C12.9799 22.743 12.4924 22.8401 12 22.84ZM12 2.64C11.7045 2.63916 11.4117 2.69707 11.1387 2.81038C10.8658 2.92368 10.6181 3.09011 10.41 3.3L3.31 10.4C2.88865 10.8219 2.65198 11.3937 2.65198 11.99C2.65198 12.5862 2.88865 13.1581 3.31 13.58L10.41 20.68C10.8319 21.1013 11.4037 21.338 12 21.338C12.5963 21.338 13.1681 21.1013 13.59 20.68L20.69 13.58C21.1113 13.1581 21.348 12.5862 21.348 11.99C21.348 11.3937 21.1113 10.8219 20.69 10.4L13.59 3.3C13.3819 3.09011 13.1342 2.92368 12.8613 2.81038C12.5883 2.69707 12.2955 2.63916 12 2.64Z" fill="#000000"></path> </g></svg>